G04*
G04 #@! TF.GenerationSoftware,Altium Limited,Altium Designer,22.8.2 (66)*
G04*
G04 Layer_Physical_Order=2*
G04 Layer_Color=32768*
%FSLAX44Y44*%
%MOMM*%
G71*
G04*
G04 #@! TF.SameCoordinates,03C31CE9-7C2E-41FB-898D-559C101E88B0*
G04*
G04*
G04 #@! TF.FilePolarity,Negative*
G04*
G01*
G75*
%ADD14C,1.0160*%
%ADD15C,0.8740*%
G36*
X331251Y145275D02*
X332616Y144710D01*
X333844Y143889D01*
X334889Y142844D01*
X335710Y141616D01*
X336275Y140251D01*
X336563Y138802D01*
Y138063D01*
Y137325D01*
X336275Y135876D01*
X335710Y134511D01*
X334889Y133282D01*
X333844Y132238D01*
X332616Y131417D01*
X331251Y130852D01*
X329802Y130563D01*
X328325D01*
X326876Y130852D01*
X325511Y131417D01*
X324282Y132238D01*
X323238Y133282D01*
X322417Y134511D01*
X321852Y135876D01*
X321563Y137325D01*
Y138063D01*
Y138802D01*
X321852Y140251D01*
X322417Y141616D01*
X323238Y142844D01*
X324282Y143889D01*
X325511Y144710D01*
X326876Y145275D01*
X328325Y145563D01*
X329802D01*
X331251Y145275D01*
D02*
G37*
G36*
X71251D02*
X72616Y144710D01*
X73844Y143889D01*
X74889Y142844D01*
X75710Y141616D01*
X76275Y140251D01*
X76564Y138802D01*
Y138063D01*
Y137325D01*
X76275Y135876D01*
X75710Y134511D01*
X74889Y133282D01*
X73844Y132238D01*
X72616Y131417D01*
X71251Y130852D01*
X69802Y130563D01*
X68325D01*
X66876Y130852D01*
X65511Y131417D01*
X64282Y132238D01*
X63238Y133282D01*
X62417Y134511D01*
X61852Y135876D01*
X61564Y137325D01*
Y138063D01*
Y138802D01*
X61852Y140251D01*
X62417Y141616D01*
X63238Y142844D01*
X64282Y143889D01*
X65511Y144710D01*
X66876Y145275D01*
X68325Y145563D01*
X69802D01*
X71251Y145275D01*
D02*
G37*
D14*
X329802Y145563D02*
X331251Y145275D01*
X332616Y144710D01*
X333844Y143889D01*
X334889Y142844D01*
X335710Y141616D01*
X336275Y140251D01*
X336563Y138802D01*
Y138063D02*
Y138802D01*
Y137325D02*
Y138063D01*
X336275Y135876D02*
X336563Y137325D01*
X335710Y134511D02*
X336275Y135876D01*
X334889Y133282D02*
X335710Y134511D01*
X333844Y132238D02*
X334889Y133282D01*
X332616Y131417D02*
X333844Y132238D01*
X331251Y130852D02*
X332616Y131417D01*
X329802Y130563D02*
X331251Y130852D01*
X328325Y130563D02*
X329802D01*
X326876Y130852D02*
X328325Y130563D01*
X325511Y131417D02*
X326876Y130852D01*
X324282Y132238D02*
X325511Y131417D01*
X323238Y133282D02*
X324282Y132238D01*
X322417Y134511D02*
X323238Y133282D01*
X321852Y135876D02*
X322417Y134511D01*
X321563Y137325D02*
X321852Y135876D01*
X321563Y137325D02*
Y138063D01*
Y138802D01*
X321852Y140251D01*
X322417Y141616D01*
X323238Y142844D01*
X324282Y143889D01*
X325511Y144710D01*
X326876Y145275D01*
X328325Y145563D01*
X329802D01*
X69802D02*
X71251Y145275D01*
X72616Y144710D01*
X73844Y143889D01*
X74889Y142844D01*
X75710Y141616D01*
X76275Y140251D01*
X76564Y138802D01*
Y138063D02*
Y138802D01*
Y137325D02*
Y138063D01*
X76275Y135876D02*
X76564Y137325D01*
X75710Y134511D02*
X76275Y135876D01*
X74889Y133282D02*
X75710Y134511D01*
X73844Y132238D02*
X74889Y133282D01*
X72616Y131417D02*
X73844Y132238D01*
X71251Y130852D02*
X72616Y131417D01*
X69802Y130563D02*
X71251Y130852D01*
X68325Y130563D02*
X69802D01*
X66876Y130852D02*
X68325Y130563D01*
X65511Y131417D02*
X66876Y130852D01*
X64282Y132238D02*
X65511Y131417D01*
X63238Y133282D02*
X64282Y132238D01*
X62417Y134511D02*
X63238Y133282D01*
X61852Y135876D02*
X62417Y134511D01*
X61564Y137325D02*
X61852Y135876D01*
X61564Y137325D02*
Y138063D01*
Y138802D01*
X61852Y140251D01*
X62417Y141616D01*
X63238Y142844D01*
X64282Y143889D01*
X65511Y144710D01*
X66876Y145275D01*
X68325Y145563D01*
X69802D01*
X70064Y378064D02*
X328064Y378064D01*
X68094Y378064D02*
X70064Y378064D01*
X64230Y377295D02*
X68094Y378064D01*
X60590Y375787D02*
X64230Y377295D01*
X57314Y373599D02*
X60590Y375787D01*
X54528Y370813D02*
X57314Y373599D01*
X52340Y367537D02*
X54528Y370813D01*
X50832Y363897D02*
X52340Y367537D01*
X50064Y360033D02*
X50832Y363897D01*
X50064Y360033D02*
X50064Y358064D01*
Y160063D02*
Y358064D01*
X50015Y159083D02*
X50064Y160063D01*
X49633Y157161D02*
X50015Y159083D01*
X48883Y155350D02*
X49633Y157161D01*
X47794Y153720D02*
X48883Y155350D01*
X46407Y152333D02*
X47794Y153720D01*
X44777Y151244D02*
X46407Y152333D01*
X42966Y150494D02*
X44777Y151244D01*
X41044Y150112D02*
X42966Y150494D01*
X40064Y150063D02*
X41044Y150112D01*
X18094Y150063D02*
X20064Y150063D01*
X14230Y149295D02*
X18094Y150063D01*
X10590Y147787D02*
X14230Y149295D01*
X7314Y145598D02*
X10590Y147787D01*
X4529Y142813D02*
X7314Y145598D01*
X2340Y139537D02*
X4529Y142813D01*
X832Y135897D02*
X2340Y139537D01*
X63Y132033D02*
X832Y135897D01*
X63Y132033D02*
X63Y130063D01*
Y50064D02*
Y130063D01*
Y46786D02*
Y50064D01*
Y46786D02*
X919Y40288D01*
X2615Y33957D01*
X5124Y27902D01*
X8401Y22225D01*
X12391Y17026D01*
X17026Y12391D01*
X22225Y8401D01*
X27902Y5124D01*
X33957Y2615D01*
X40288Y919D01*
X46786Y63D01*
X351341D01*
X357839Y919D01*
X364170Y2615D01*
X370225Y5124D01*
X375902Y8401D01*
X381101Y12391D01*
X385736Y17026D01*
X389726Y22225D01*
X393003Y27902D01*
X395512Y33957D01*
X397208Y40288D01*
X398064Y46786D01*
Y50064D01*
X398064Y130063D01*
X398064Y132033D02*
X398064Y130063D01*
X397295Y135897D02*
X398064Y132033D01*
X395787Y139537D02*
X397295Y135897D01*
X393599Y142813D02*
X395787Y139537D01*
X390813Y145598D02*
X393599Y142813D01*
X387537Y147787D02*
X390813Y145598D01*
X383897Y149295D02*
X387537Y147787D01*
X380033Y150063D02*
X383897Y149295D01*
X378064Y150063D02*
X380033D01*
X358064Y150063D02*
X378064Y150063D01*
X357083Y150112D02*
X358064Y150063D01*
X355161Y150494D02*
X357083Y150112D01*
X353349Y151244D02*
X355161Y150494D01*
X351720Y152333D02*
X353349Y151244D01*
X350333Y153720D02*
X351720Y152333D01*
X349244Y155350D02*
X350333Y153720D01*
X348494Y157161D02*
X349244Y155350D01*
X348112Y159083D02*
X348494Y157161D01*
X348064Y160063D02*
X348112Y159083D01*
X348064Y360033D02*
X348064Y358064D01*
X347295Y363897D02*
X348064Y360033D01*
X345787Y367537D02*
X347295Y363897D01*
X343599Y370813D02*
X345787Y367537D01*
X340813Y373599D02*
X343599Y370813D01*
X337537Y375787D02*
X340813Y373599D01*
X333897Y377295D02*
X337537Y375787D01*
X330033Y378064D02*
X333897Y377295D01*
X328064Y378064D02*
X330033D01*
X348064Y160063D02*
X348064Y358064D01*
X20064Y150063D02*
X40064D01*
D15*
X96500Y316560D02*
D03*
X76500D02*
D03*
Y329560D02*
D03*
X96500D02*
D03*
X301560Y209160D02*
D03*
X321560D02*
D03*
Y196160D02*
D03*
X301560D02*
D03*
M02*
