G04*
G04 #@! TF.GenerationSoftware,Altium Limited,Altium Designer,22.8.2 (66)*
G04*
G04 Layer_Color=32896*
%FSLAX44Y44*%
%MOMM*%
G71*
G04*
G04 #@! TF.SameCoordinates,03C31CE9-7C2E-41FB-898D-559C101E88B0*
G04*
G04*
G04 #@! TF.FilePolarity,Positive*
G04*
G01*
G75*
%ADD18C,0.2000*%
%ADD19C,0.1270*%
%ADD20C,0.2540*%
D18*
X99500Y306060D02*
G03*
X99500Y306060I-1000J0D01*
G01*
X300560Y219660D02*
G03*
X300560Y219660I-1000J0D01*
G01*
D19*
X84800Y313060D02*
X88200D01*
X84800Y333060D02*
X88200D01*
X309860Y212660D02*
X313260D01*
X309860Y192660D02*
X313260D01*
D20*
X194960Y162540D02*
Y177775D01*
X187342D01*
X184803Y175236D01*
Y170158D01*
X187342Y167618D01*
X194960D01*
X189882D02*
X184803Y162540D01*
X169568D02*
X179725D01*
X169568Y172697D01*
Y175236D01*
X172107Y177775D01*
X177186D01*
X179725Y175236D01*
X194960Y227540D02*
Y242775D01*
X187342D01*
X184803Y240236D01*
Y235158D01*
X187342Y232618D01*
X194960D01*
X189882D02*
X184803Y227540D01*
X179725D02*
X174647D01*
X177186D01*
Y242775D01*
X179725Y240236D01*
X172460Y297775D02*
Y282540D01*
X162303D01*
X147068D02*
X157225D01*
X147068Y292697D01*
Y295236D01*
X149607Y297775D01*
X154686D01*
X157225Y295236D01*
X172460Y362775D02*
Y347540D01*
X162303D01*
X157225D02*
X152147D01*
X154686D01*
Y362775D01*
X157225Y360236D01*
X270544Y219043D02*
X283240D01*
X285779Y216504D01*
Y211425D01*
X283240Y208886D01*
X270544D01*
X285779Y193651D02*
Y203808D01*
X275622Y193651D01*
X273083D01*
X270544Y196190D01*
Y201269D01*
X273083Y203808D01*
X127516Y306677D02*
X114820D01*
X112281Y309216D01*
Y314294D01*
X114820Y316834D01*
X127516D01*
X112281Y321912D02*
Y326990D01*
Y324451D01*
X127516D01*
X124977Y321912D01*
M02*
